<svg width="400" height="400" viewBox="0 0 400 400" fill="none" xmlns="http://www.w3.org/2000/svg">
<path d="M312.31 350H87.69C81.18 350 75.9 344.72 75.9 338.21V176.26H324.1V338.21C324.1 344.72 318.82 350 312.31 350Z" stroke="#191919" stroke-width="12" stroke-miterlimit="10" stroke-linecap="round" stroke-linejoin="round"/>
<path d="M325.57 176.26H74.43C66.83 176.26 60.68 170.1 60.68 162.51V136.2C60.68 128.6 66.84 122.45 74.43 122.45H325.56C333.16 122.45 339.31 128.61 339.31 136.2V162.51C339.32 170.1 333.16 176.26 325.57 176.26Z" stroke="#191919" stroke-width="12" stroke-miterlimit="10" stroke-linecap="round" stroke-linejoin="round"/>
<path d="M200 122.44V350" stroke="#6A0BFF" stroke-width="12" stroke-miterlimit="10" stroke-linecap="round" stroke-linejoin="round"/>
<path d="M193.19 122.44L158.3 58.8099C152.7 48.5999 138.73 46.9299 130.88 55.5199L113.07 74.9999C105.05 83.7799 108.3 97.8699 119.36 102.24L193.19 122.44Z" stroke="#6A0BFF" stroke-width="12" stroke-miterlimit="10" stroke-linecap="round" stroke-linejoin="round"/>
<path d="M206.81 122.44L241.7 58.8099C247.3 48.5999 261.27 46.9299 269.12 55.5199L286.93 74.9999C294.95 83.7799 291.7 97.8699 280.64 102.24L206.81 122.44Z" stroke="#6A0BFF" stroke-width="12" stroke-miterlimit="10" stroke-linecap="round" stroke-linejoin="round"/>
</svg>
