<svg width="400" height="400" viewBox="0 0 400 400" fill="none" xmlns="http://www.w3.org/2000/svg">
<path d="M157.206 239.889C131.805 275.65 192.503 238.022 193.778 250.744" stroke="#141414" strokeWidth="16" strokeLinecap="round" strokeLinejoin="round"/>
<path d="M207.223 248.16C210.56 246.063 214.065 245.807 217.364 248.16C250.079 271.493 252.388 240.936 237.649 243.739" stroke="#141414" strokeWidth="16" strokeLinecap="round" strokeLinejoin="round"/>
<path d="M145.5 272.5C145.085 275.127 147.755 297.831 152.08 297.831C158.009 297.831 169.817 266.909 169.817 277.804C169.817 284.293 166.898 316.409 177.843 319.113C185.113 320.908 191.412 275.828 193.469 279.891C197.364 287.587 193.559 300.28 196.848 309.098C198.216 312.769 206.13 321.801 211.63 318.694C223.275 312.12 211.902 287.179 218.388 278.638C221.813 274.124 220.787 304.601 231.479 302.84C244.25 300.737 245.153 279.464 244.039 273.955" stroke="#141414" strokeWidth="16" strokeLinecap="round" strokeLinejoin="round"/>
<path d="M118.4 175.111C95.3574 176.011 104.036 213.765 122.889 200.337" stroke="#141414" strokeWidth="16" strokeLinecap="round" strokeLinejoin="round"/>
<path d="M279.085 175.193C297.451 173.311 294.525 204.491 276.889 198.878" stroke="#141414" strokeWidth="16" strokeLinecap="round" strokeLinejoin="round"/>
<path d="M136.553 93.2222C130.596 32.8823 247.88 32.8823 256.112 40.4269" stroke="#141414" strokeWidth="16" strokeLinecap="round" strokeLinejoin="round"/>
<path d="M163.223 107.889C226.488 23.0922 279.792 84.3873 290.334 98.7656" stroke="#141414" strokeWidth="16" strokeLinecap="round" strokeLinejoin="round"/>
<path d="M208.445 115.633C213.25 110.549 218.532 107.277 229.172 99.6804C272.123 69.0219 286.758 155.695 275.883 188.556" stroke="#141414" strokeWidth="16" strokeLinecap="round" strokeLinejoin="round"/>
<path d="M135.112 94.4708C114.21 80.333 99.2029 130.88 108.684 144.556" stroke="#141414" strokeWidth="16" strokeLinecap="round" strokeLinejoin="round"/>
<path d="M265.889 290C306.81 294.78 343.34 333.881 360 357.222" stroke="#141414" strokeWidth="16" strokeLinecap="round" strokeLinejoin="round"/>
<path d="M124.111 291.222C64.5893 310.052 53.1232 333.369 41 363.333" stroke="#141414" strokeWidth="16" strokeLinecap="round" strokeLinejoin="round"/>
<path d="M152.222 173.889C179.097 173.796 208.731 171.976 235.333 172.955" stroke="#141414" strokeWidth="16" strokeLinecap="round" strokeLinejoin="round"/>
<path d="M215.101 186.111C217.313 182.235 216.45 176.283 215.101 173.889" stroke="#141414" strokeWidth="16" strokeLinecap="round" strokeLinejoin="round"/>
<path d="M170.815 187.333C170.908 182.849 170.619 178.36 170.277 173.889" stroke="#141414" strokeWidth="16" strokeLinecap="round" strokeLinejoin="round"/>
</svg>
