<svg xmlns="http://www.w3.org/2000/svg" width="430" height="430" style="width:100%;height:100%;transform:translate3d(0,0,0);content-visibility:visible" viewBox="0 0 430 430"><defs><clipPath id="a"><path d="M0 0h430v430H0z"/></clipPath><clipPath id="i"><path d="M0 0h430v430H0z"/></clipPath><clipPath id="h"><path d="M0 0h430v430H0z"/></clipPath><clipPath id="e"><path d="M0 0h430v430H0z"/></clipPath><clipPath id="g"><path d="M0 0h430v430H0z"/></clipPath><clipPath id="f"><path d="M0 0h430v430H0z"/></clipPath><clipPath id="c"><path d="M0 0h430v430H0z"/></clipPath><clipPath id="d"><path d="M0 0h430v430H0z"/></clipPath><clipPath id="b"><path d="M0 0h430v430H0z"/></clipPath></defs><g clip-path="url(#a)"><g clip-path="url(#b)" style="display:block"><path fill="#EDAA66" d="M71.2-107.45v83.7l.1 85.1c0 1.4-.8 2.5-2.1 2.9l-139.5 43.2c-.2.1-.5.1-.8.1l-.1-111.2-.1-65.9 12.6-3.4 129.9-34.6z" class="secondary" style="display:block" transform="translate(287 283.092)"/><g fill="#EDAA66" style="display:block"><path d="M215.1 390.542c.2.1.5.1.7.1l-.1-111.2-.1-65.9-143.7-37.2v.1l.4 82.2.7 86.8v1.1c0 .1.1.1.1.2v.1c.1.1.1.2.2.3.1 0 .1.1.1.1l.1.2.1.1.1.1c.1.1.2.1.3.2s.3.1.4.2c0 0 .1.1.2.1s.1.1.2.1l140.2 42.3z" class="secondary"/><path d="M71.25 107.05c.2.1.5.1.7.1l-.1-111.2-.1-65.9-143.7-37.2v.1l.4 82.2.7 86.8v1.1c0 .1.1.1.1.2v.1c.1.1.1.2.2.3.1 0 .1.1.1.1l.1.2.1.1.1.1c.1.1.2.1.3.2s.3.1.4.2c0 0 .1.1.2.1s.1.1.2.1l140.2 42.3z" class="secondary" style="mix-blend-mode:multiply" transform="translate(143.85 283.492)"/></g><path fill="#EDAA66" d="m165.15-2.25.4-39.6c0-.1 0-.2-.1-.3-.1-.7-.4-1.2-.8-1.7L-.05-1.35l-164.6-42.5c-.5.5-.9 1.2-.9 2l.4 40.5c.1 1.4 1 2.6 2.3 2.9l19.8 5.1L.75 43.85l142.5-37.9 19.7-5.3c1.2-.3 2.1-1.4 2.2-2.6z" class="secondary" style="display:block" transform="translate(214.95 169.792)"/><path fill="#EDAA66" d="M163.4-.613c.5.1.9.401 1.3.801L-.1 42.688-164.7.188c.3-.4.8-.701 1.3-.801l162.7-42q.75-.15 1.5 0z" class="secondary" style="display:block" transform="translate(215 125.754)"/><g opacity=".3" style="mix-blend-mode:multiply;display:block"><path fill="#EDAA66" d="m215 168.442 164.7-42.5c.4.4.7 1 .7 1.7l-.4 39.9v.3c-.1 1.2-1 2.3-2.2 2.6l-19.7 5.2-130 34.5-12.6 3.4-143.7-37.1-19.8-5.1c-1.3-.4-2.2-1.5-2.2-2.9l-.4-40.5c.1-.8.4-1.5.9-2z" class="secondary" opacity="1"/></g><g opacity=".5" style="mix-blend-mode:multiply;display:block"><path fill="#EDAA66" d="m71.9 176.442 143.7 37.1-.7-45.1-164.6-42.5c-.5.5-.9 1.2-.9 2l.4 40.5c.1 1.4 1 2.6 2.3 2.9z" class="secondary" opacity="1"/></g><path fill="none" stroke="#121330" strokeLinecap="round" strokeLinejoin="round" strokeWidth="10.5" d="m-172.938-104.938.5 50L11.5-8l183-48 .5-49m.034 0L11-152.5-173.034-105 11-57.5z" class="primary" style="display:block" transform="matrix(.9 0 0 .9 204.65 220.85)"/><g fill="none" stroke="#121330" strokeLinecap="round" strokeLinejoin="round" strokeWidth="9.45" style="display:block"><path d="M357.762 177.2 215.45 212.3 71.506 179.056l.377 80.226.418 88.974L215.369 391.4l142.41-44.1-.01-87.304zm-142.537 34.48.067 68.407.108 111.032" class="primary"/><path d="m71.8 178.593 145.566-45.398 140.359 43.978" class="primary" opacity="0"/></g><path fill="none" stroke="#000" strokeLinecap="round" strokeLinejoin="round" strokeWidth="10.5" d="m-87.742 169.722.262-100.188.206-92.284-14.863-4.25.137-47L0-107.304m87.588 277.026-.347-106.217-.244-87.255 14.866-4.75L102-74 0-107.196" class="tertiary" style="display:block" transform="matrix(.9 0 0 .9 215 215)"/><g style="display:none"><path class="secondary"/><path class="secondary" style="mix-blend-mode:multiply"/><path class="secondary" style="mix-blend-mode:multiply"/></g><path class="secondary" style="display:none"/><g style="display:none"><path class="secondary"/><path class="secondary" style="mix-blend-mode:multiply"/></g><g fill="none" style="display:none"><path class="primary"/><path class="primary"/></g><path fill="none" class="tertiary" style="display:none"/><path fill="none" class="tertiary" style="display:none"/><path class="secondary" style="display:none"/><g style="display:none"><path class="secondary"/><path class="secondary" style="mix-blend-mode:multiply"/></g><path class="secondary" style="mix-blend-mode:multiply;display:none"/><path fill="none" class="primary" style="display:none"/><path fill="none" class="tertiary" style="display:none"/><path fill="none" class="tertiary" style="display:none"/><path fill="none" stroke="#000" strokeLinecap="round" strokeWidth="10.5" d="M1.479-105.144C-236-138.013-48.646-304.002 3.944-102.679" class="tertiary" style="display:block" transform="matrix(.9 0 0 .9 214.1 211.4)"/><path fill="none" stroke="#000" strokeLinecap="round" strokeWidth="10.5" d="M4.416-105.144c234.526-32.869 49.502-198.858-2.434 2.465" class="tertiary" style="display:block" transform="matrix(.9 0 0 .9 213.75 211.4)"/><path fill="none" class="tertiary" style="display:none"/><path fill="none" class="tertiary" style="display:none"/><path fill="none" class="tertiary" style="display:none"/><path fill="none" class="tertiary" style="display:none"/></g><g clip-path="url(#c)" style="display:none"><g clip-path="url(#d)" style="display:none"><g style="display:none"><path class="secondary"/><path class="secondary" style="mix-blend-mode:multiply"/></g><path class="secondary" style="display:none"/><g style="display:none"><path class="secondary"/><path class="secondary" style="mix-blend-mode:multiply"/></g><path class="secondary" style="display:none"/><g style="display:none"><path class="secondary"/><path class="secondary" style="mix-blend-mode:multiply"/><path class="secondary" style="mix-blend-mode:multiply"/></g><g style="display:none"><path class="secondary"/><path class="secondary" style="mix-blend-mode:multiply"/><path class="secondary" style="mix-blend-mode:multiply"/></g><path fill="none" class="primary" style="display:none"/><path fill="none" class="primary" style="display:none"/><path fill="none" class="primary" style="display:none"/><path fill="none" class="primary" style="display:none"/><path fill="none" class="primary" style="display:none"/><path fill="none" class="primary" style="display:none"/><path fill="none" class="primary" style="display:none"/><path fill="none" class="tertiary" style="display:none"/><path fill="none" class="tertiary" style="display:none"/><path fill="none" class="tertiary" style="display:none"/></g><path fill="none" class="tertiary" style="display:none"/><path fill="none" class="tertiary" style="display:none"/></g><g clip-path="url(#e)" style="display:none"><g clip-path="url(#f)" style="display:none"><g style="display:none"><path class="secondary"/><path class="secondary" style="mix-blend-mode:multiply"/></g><path class="secondary" style="display:none"/><g style="display:none"><path class="secondary"/><path class="secondary" style="mix-blend-mode:multiply"/></g><path class="secondary" style="display:none"/><g style="display:none"><path class="secondary"/><path class="secondary" style="mix-blend-mode:multiply"/><path class="secondary" style="mix-blend-mode:multiply"/></g><g style="display:none"><path class="secondary"/><path class="secondary" style="mix-blend-mode:multiply"/><path class="secondary" style="mix-blend-mode:multiply"/></g><path fill="none" class="primary" style="display:none"/><path fill="none" class="primary" style="display:none"/><path fill="none" class="primary" style="display:none"/><path fill="none" class="primary" style="display:none"/><path fill="none" class="primary" style="display:none"/><path fill="none" class="primary" style="display:none"/><path fill="none" class="primary" style="display:none"/><path fill="none" class="tertiary" style="display:none"/><path fill="none" class="tertiary" style="display:none"/><path fill="none" class="tertiary" style="display:none"/></g><g clip-path="url(#g)" style="display:none"><g style="display:none"><path class="secondary"/><path class="secondary" style="mix-blend-mode:multiply"/></g><path class="secondary" style="display:none"/><g style="display:none"><path class="secondary"/><path class="secondary" style="mix-blend-mode:multiply"/></g><path class="secondary" style="display:none"/><g style="display:none"><path class="secondary"/><path class="secondary" style="mix-blend-mode:multiply"/><path class="secondary" style="mix-blend-mode:multiply"/></g><g style="display:none"><path class="secondary"/><path class="secondary" style="mix-blend-mode:multiply"/><path class="secondary" style="mix-blend-mode:multiply"/></g><path fill="none" class="primary" style="display:none"/><path fill="none" class="primary" style="display:none"/><path fill="none" class="primary" style="display:none"/><path fill="none" class="primary" style="display:none"/><path fill="none" class="primary" style="display:none"/><path fill="none" class="primary" style="display:none"/><path fill="none" class="primary" style="display:none"/><path fill="none" class="tertiary" style="display:none"/><path fill="none" class="tertiary" style="display:none"/><path fill="none" class="tertiary" style="display:none"/></g><path fill="none" class="tertiary" style="display:none"/><path fill="none" class="tertiary" style="display:none"/></g><g clip-path="url(#h)" style="display:none"><path class="secondary" style="display:none"/><g style="display:none"><path class="secondary"/><path class="secondary" style="mix-blend-mode:multiply"/></g><path fill="none" class="primary" style="display:none"/><path class="secondary" style="display:none"/><path class="secondary" style="display:none"/><path class="secondary" style="mix-blend-mode:multiply;display:none"/><path class="secondary" style="mix-blend-mode:multiply;display:none"/><path fill="none" class="primary" style="display:none"/><path fill="none" class="tertiary" style="display:none"/><path fill="none" class="tertiary" style="display:none"/><path fill="none" class="tertiary" style="display:none"/></g><g clip-path="url(#i)" style="display:none"><path class="secondary" style="display:none"/><g style="display:none"><path class="secondary"/><path class="secondary" style="mix-blend-mode:multiply"/></g><path fill="none" class="primary" style="display:none"/><path class="secondary" style="display:none"/><path class="secondary" style="display:none"/><path class="secondary" style="mix-blend-mode:multiply;display:none"/><path class="secondary" style="mix-blend-mode:multiply;display:none"/><path fill="none" class="primary" style="display:none"/><path fill="none" class="tertiary" style="display:none"/><path fill="none" class="tertiary" style="display:none"/><path fill="none" class="tertiary" style="display:none"/></g></g></svg>