<svg width="400" height="400" viewBox="0 0 400 400" fill="none" xmlns="http://www.w3.org/2000/svg">
<path d="M150 148.124C167.214 145.633 214.092 121.192 228.177 111C227.51 117.083 230.577 133.024 248.177 148.124" stroke="#141414" stroke-width="16" stroke-linecap="round" stroke-linejoin="round"/>
<path d="M142.994 179.385C136.393 180.326 134 184.851 134 192.031C134 196.818 138.36 200.774 147.081 203.897C175.395 281.896 239.368 280.085 264.939 197.873C272.98 192.239 277 188.168 277 185.663C277 181.058 275.537 177.812 267.96 175" stroke="#141414" stroke-width="16" stroke-linecap="round" stroke-linejoin="round"/>
<path d="M299.247 278.479C319.801 200.958 289.859 96.2915 257.455 96.2915" stroke="#141414" stroke-width="16" stroke-linecap="round" stroke-linejoin="round"/>
<path d="M241.391 78.9993C91.5018 17.0565 93.5937 235.183 107.06 274.479" stroke="#141414" stroke-width="16" stroke-linecap="round" stroke-linejoin="round"/>
<path d="M101.5 348.861C125.5 268.5 271.065 259.747 301 348.861" stroke="#141414" stroke-width="16" stroke-linecap="round" stroke-linejoin="round"/>
<path d="M186 186.595C186.994 181.904 187.106 177.149 187.506 172.433" stroke="#141414" stroke-width="16" stroke-linecap="round" stroke-linejoin="round"/>
<path d="M220.391 188C220.905 182.673 221.158 177.319 221.391 172" stroke="#141414" stroke-width="16" stroke-linecap="round" stroke-linejoin="round"/>
<path d="M206.984 219.368C200.501 222 197.001 221 192.501 220" stroke="#141414" stroke-width="16" stroke-linecap="round" stroke-linejoin="round"/>
</svg>
